{"title":"Japanese_Schoolgirl_Humping_Objects_-5","uid":5075991,"size":58605568,"categoryP":"porn","categoryS":"movie_clips","magnet":"?xt=urn:btih:7eb33de9d9eaea2bb1de474ccfcbb9561242f0cb&amp;dn=Japanese_Schoolgirl_Humping_Objects_-5&amp;tr=udp%3A%2F%2Ftracker.openbittorrent.com%3A80&amp;tr=udp%3A%2F%2Fopen.demonii.com%3A1337&amp;tr=udp%3A%2F%2Ftracker.coppersurfer.tk%3A6969&amp;tr=udp%3A%2F%2Fexodus.desync.com%3A6969","seeders":0,"leechers":1,"uploader":"sandokan89","files":-1,"time":1251839673,"description":"------------ Japanese_Schoolgirl_Humping_Objects_-5 -------------\n\nVideo\nFormat                           : MPEG-4 Visual ---- AVI\nFormat profile                   : Simple@L3\nFormat settings, BVOP            : No\nFormat settings, QPel            : No\nFormat settings, GMC             : No warppoints\nFormat settings, Matrix          : Default (H.263)\nCodec ID                         : XVID\nCodec ID/Hint                    : XviD\nDuration                         : 7mn 47s\nBit rate                         : 800 Kbps\nWidth                            : 720 pixels\nHeight                           : 540 pixels\nDisplay aspect ratio             : 4/3\nFrame rate                       : 29.970 fps\nResolution                       : 24 bits\nColorimetry                      : 4:2:0\nScan type                        : Progressive\nBits/(Pixel*Frame)               : 0.069\nStream size                      : 44.5 MiB (80%)\nWriting library                  : XviD 1.1.0 (UTC 2005-11-22)\n\nAudio\nFormat                           : MPEG Audio\nFormat version                   : Version 1\nFormat profile                   : Layer 3\nCodec ID                         : 55\nCodec ID/Hint                    : MP3\nDuration                         : 7mn 47s\nBit rate mode                    : Constant\nBit rate                         : 192 Kbps\nChannel(s)                       : 2 channels\nSampling rate                    : 44.1 KHz\nResolution                       : 16 bits\nVideo delay                      : 10ms\nStream size                      : 10.7 MiB (19%)\nAlignment                        : Split accross interleaves\nInterleave, duration             : 33 ms (1.00 video frame)\nInterleave, preload duration     : 500 ms\n","torrent":{"xt":"urn:btih:7eb33de9d9eaea2bb1de474ccfcbb9561242f0cb","amp;dn":"Japanese_Schoolgirl_Humping_Objects_-5","amp;tr":["udp%3A%2F%2Ftracker.openbittorrent.com%3A80","udp%3A%2F%2Fopen.demonii.com%3A1337","udp%3A%2F%2Ftracker.coppersurfer.tk%3A6969","udp%3A%2F%2Fexodus.desync.com%3A6969"],"infoHash":"7eb33de9d9eaea2bb1de474ccfcbb9561242f0cb","infoHashBuffer":{"type":"Buffer","data":[126,179,61,233,217,234,234,43,177,222,71,76,207,203,185,86,18,66,240,203]},"announce":[],"urlList":[]}}